<svg id="Layer_1" data-name="Layer 1" xmlns="http://www.w3.org/2000/svg" xmlns:xlink="http://www.w3.org/1999/xlink" viewBox="0 0 182 227.1"><defs><style>.cls-1{fill:url(#linear-gradient);}.cls-2{fill:url(#linear-gradient-2);}.cls-3{fill:url(#linear-gradient-3);}.cls-4{fill:url(#linear-gradient-4);}.cls-5{fill:url(#linear-gradient-5);}.cls-6{fill:#261430;}.cls-7{fill:#3c2946;}.cls-8{fill:url(#linear-gradient-6);}.cls-9{fill:url(#linear-gradient-7);}</style><linearGradient id="linear-gradient" x1="-77.73" y1="190.02" x2="171.97" y2="-32.11" gradientUnits="userSpaceOnUse"><stop offset="0" stop-color="#261430"/><stop offset="1" stop-color="#856895"/></linearGradient><linearGradient id="linear-gradient-2" x1="-33.4" y1="239.86" x2="216.31" y2="17.73" xlink:href="#linear-gradient"/><linearGradient id="linear-gradient-3" x1="2.95" y1="280.72" x2="252.65" y2="58.59" xlink:href="#linear-gradient"/><linearGradient id="linear-gradient-4" x1="-18.43" y1="256.68" x2="231.27" y2="34.55" xlink:href="#linear-gradient"/><linearGradient id="linear-gradient-5" x1="12.49" y1="291.44" x2="262.19" y2="69.31" xlink:href="#linear-gradient"/><linearGradient id="linear-gradient-6" x1="-72.46" y1="207.51" x2="177.24" y2="-14.62" xlink:href="#linear-gradient"/><linearGradient id="linear-gradient-7" x1="-20.34" y1="266.11" x2="229.37" y2="43.98" xlink:href="#linear-gradient"/></defs><title>FootballAcademy</title><path class="cls-1" d="M114.9,15l-.3,8.2-.4-8.2h.7Z" transform="translate(-23.6 -14.9)"/><path class="cls-2" d="M205.6,140.5,199.3,35.2l-3.7-2.1c-33.4-19.2-76.1-18.3-81-18.1S67,13.8,33.6,33.1l-3.7,2.1L23.6,140.6c-.1,1.7-1.8,41.9,36.7,66.2,34.7,21.8,50,31,50.2,31.1l4.1,4.1,4.1-4.1c.1-.1,15.5-9.3,50.1-31.1C207.4,182.5,205.7,142.3,205.6,140.5Zm-45.3,52.7c-24.4,15.3-39.1,24.4-45.7,28.4-6.6-4-21.4-13.1-45.7-28.4-30.4-19.1-29.4-50.5-29.3-51.7l5.7-96.6C75.4,29.5,113.8,31,114.2,31h.7c.4,0,38.8-1.6,69,13.9l5.7,96.5A61.5,61.5,0,0,1,160.3,193.2Z" transform="translate(-23.6 -14.9)"/><path class="cls-3" d="M115.6,165.7l3.6,7.2a1.1,1.1,0,0,0,.9.6l8,1.2a1.2,1.2,0,0,1,.6,2l-5.8,5.6a1.4,1.4,0,0,0-.3,1.1l1.4,7.9a1.2,1.2,0,0,1-1.7,1.3l-7.2-3.8a1.1,1.1,0,0,0-1.1,0l-7.1,3.8a1.2,1.2,0,0,1-1.7-1.3l1.3-7.9a1.1,1.1,0,0,0-.3-1.1l-5.8-5.6a1.2,1.2,0,0,1,.7-2l8-1.2a1.1,1.1,0,0,0,.9-.6l3.5-7.2A1.2,1.2,0,0,1,115.6,165.7Z" transform="translate(-23.6 -14.9)"/><path class="cls-4" d="M80.3,159.4l2.2,4.6a.6.6,0,0,0,.6.4l5.1.8a.7.7,0,0,1,.4,1.3l-3.7,3.6c-.2.1-.2.4-.2.6l.9,5.1a.8.8,0,0,1-1.1.8l-4.6-2.4h-.7l-4.5,2.4a.8.8,0,0,1-1.1-.8l.8-5.1a.5.5,0,0,0-.2-.6l-3.7-3.6a.8.8,0,0,1,.5-1.3l5.1-.8a.5.5,0,0,0,.5-.4l2.3-4.6A.8.8,0,0,1,80.3,159.4Z" transform="translate(-23.6 -14.9)"/><path class="cls-5" d="M150.3,159.4l2.2,4.6a.6.6,0,0,0,.6.4l5.1.8a.7.7,0,0,1,.4,1.3l-3.7,3.6c-.2.1-.2.4-.2.6l.9,5.1a.8.8,0,0,1-1.1.8l-4.6-2.4h-.7l-4.5,2.4a.8.8,0,0,1-1.1-.8l.8-5.1a.5.5,0,0,0-.2-.6l-3.7-3.6a.8.8,0,0,1,.5-1.3l5.1-.8a.5.5,0,0,0,.5-.4l2.3-4.6A.8.8,0,0,1,150.3,159.4Z" transform="translate(-23.6 -14.9)"/><path class="cls-6" d="M79.7,56.3v6.3H76.6V49.9l2-2.1h5v2.8H79.7v2.9h3.6v2.8Z" transform="translate(-23.6 -14.9)"/><path class="cls-6" d="M84.9,47.8h9V62.6h-9Zm3.2,12h2.7V50.6H88.1Z" transform="translate(-23.6 -14.9)"/><path class="cls-6" d="M95.3,47.8h8.9V62.6H95.3Zm3.1,12h2.7V50.6H98.4Z" transform="translate(-23.6 -14.9)"/><path class="cls-6" d="M114.4,50.6h-2.8v12h-3.1v-12h-2.9V47.8h8.8Z" transform="translate(-23.6 -14.9)"/><path class="cls-6" d="M124.7,56.5v6.1h-7l-2-2V47.8H122l2.1,2v4L122.7,55Zm-3.6-2.8V50.6h-2.3v3.1Zm.5,6.1V56.5h-2.8v3.3Z" transform="translate(-23.6 -14.9)"/><path class="cls-6" d="M129.1,62.6H126V50.2l2.4-2.4h6.5V62.6h-3.1V57.8h-2.7Zm2.7-7.7V50.6h-2.7v4.3Z" transform="translate(-23.6 -14.9)"/><path class="cls-6" d="M136,62.6V47.8h3.1v12h4.4v2.8Z" transform="translate(-23.6 -14.9)"/><path class="cls-6" d="M144.8,62.6V47.8h3.1v12h4.4v2.8Z" transform="translate(-23.6 -14.9)"/><path class="cls-6" d="M63.5,90.6H58.6V71l3.7-3.7H72.5V90.6H67.6V83H63.5Zm4.1-12.1V71.7H63.5v6.8Z" transform="translate(-23.6 -14.9)"/><path class="cls-6" d="M83.2,86.2V83.4h5v4l-3.3,3.2H74.4V70.5l3.5-3.2H88.2v8.8h-5V71.7H79.3V86.2Z" transform="translate(-23.6 -14.9)"/><path class="cls-6" d="M95,90.6H90.1V71l3.8-3.7h10.2V90.6H99.2V83H95Zm4.2-12.1V71.7H95v6.8Z" transform="translate(-23.6 -14.9)"/><path class="cls-6" d="M105.9,67.3H116l3.8,3.7V87.4l-3.3,3.2H105.9Zm8.9,18.9V71.7h-4V86.2Z" transform="translate(-23.6 -14.9)"/><path class="cls-6" d="M121.7,67.3H133v4.4h-6.4v4.5h6.1v4.4h-6.1v5.6h6.6v4.4H121.7Z" transform="translate(-23.6 -14.9)"/><path class="cls-6" d="M147.1,67.3h5.7V90.6h-4.5V76.1l-3.7,14.5h-1.4l-3.7-14.5V90.6H135V67.3h5.7l3.2,11.6Z" transform="translate(-23.6 -14.9)"/><path class="cls-6" d="M165.3,67.3h5.1l-7.9,23.3h-5.1l3-8.9-4.9-14.4h5.1l2.2,7.2Z" transform="translate(-23.6 -14.9)"/><path class="cls-7" d="M87.7,147.3h-21V134.4l13.1-11.9v-5.8H74.6v4H67v-6l5.3-5.2H87.7v15.9L74.6,137.1v3H87.7Z" transform="translate(-23.6 -14.9)"/><path class="cls-7" d="M113.2,142.1l-5.6,5.2H90.8V114.7l5.6-5.2h16.8ZM98.7,116.7v23.4h6.6V116.7Z" transform="translate(-23.6 -14.9)"/><path class="cls-7" d="M137,147.3H116V134.4l13.1-11.9v-5.8h-5.2v4h-7.5v-6l5.2-5.2H137v15.9l-13.1,11.7v3H137Z" transform="translate(-23.6 -14.9)"/><path class="cls-7" d="M162.5,142.1l-5.6,5.2H140.1V114.7l5.7-5.2h16.7Zm-14.4-25.4v23.4h6.5V116.7Z" transform="translate(-23.6 -14.9)"/><circle class="cls-8" cx="32" cy="114.6" r="3.5"/><circle class="cls-9" cx="150" cy="114.6" r="3.5"/></svg>